<svg width="402" height="172" viewBox="0 0 402 172" fill="none" xmlns="http://www.w3.org/2000/svg">
<path d="M0.143189 132C-0.949698 126.413 -0.0303775 120.924 0.143189 115.021L0.14319 6.22656C0.233032 3.1675 4.26298 1.91337 7.17346 0.94043C10.2347 -0.0839598 13.3765 -0.0720178 16.9489 0.0664064L176.421 6.22656L344.547 12.5986L397.03 14.6162C399.87 14.725 401.651 17.1134 401.797 19.5557C402.088 24.5076 402.003 28.9733 401.926 33.8936L401.26 77.1221L401.926 115.021L401.926 150.25C395.35 149.591 383.657 153.311 377.784 151.863C376.473 151.541 375.538 149.538 373.802 149.979C370.589 150.793 367.384 150.058 364.161 150.25C361.983 150.379 360.373 150.877 358.163 150.171C347.144 146.649 345.854 148.009 334.349 148.377C324.407 148.695 317.3 153.319 309.14 154.622C307.357 154.907 304.845 153.786 303.815 155.963C303.216 157.229 302.61 159.044 300.889 159.179C296.991 159.483 294.717 162.944 291.511 164.314L291.513 164.314C283.016 167.945 274.366 168.333 265.749 168.021C265.058 167.995 264.646 168.721 264.328 168.638C263.946 168.539 263.944 167.02 263.631 166.905C259.174 165.288 257.4 172.339 243.761 166.223C240.992 164.981 238.233 164.385 235.475 163.564C225.775 160.681 218.55 169.169 213.089 168.301C186.536 164.079 185.023 171.321 162.086 171.997C155.696 172.185 145.682 162.894 135.348 163.302C133.006 163.395 130.811 163.754 129.512 161.403C125.66 161.253 120.124 158.719 115.218 157.879C111.602 157.26 109.801 154.163 106.95 152.84C103.177 151.092 98.0869 152.019 94.8102 148.626C92.592 146.33 92.317 149.715 88.0201 146.229C86.4543 144.96 85.0141 143.708 82.8209 145.248C78.7031 144.063 77.3846 139.636 73.4596 140.359C69.9864 141 67.2892 138.639 64.3043 138.434C53.4306 137.684 43.0659 139.421 32.0797 140.156C24.0556 134.844 14.9515 132.613 5.42249 133.271C3.93286 133.255 1.67462 132.241 0.143189 132Z" fill="#FEC428"/>
<path d="M0.143189 132C-0.949698 126.413 -0.0303775 120.924 0.143189 115.021L0.14319 6.22656C0.233032 3.1675 4.26298 1.91337 7.17346 0.94043C10.2347 -0.0839598 13.3765 -0.0720178 16.9489 0.0664064L176.421 6.22656L344.547 12.5986L397.03 14.6162C399.87 14.725 401.651 17.1134 401.797 19.5557C402.088 24.5076 402.003 28.9733 401.926 33.8936L401.26 77.1221L401.926 115.021L401.926 150.25C395.35 149.591 383.657 153.311 377.784 151.863C376.473 151.541 375.538 149.538 373.802 149.979C370.589 150.793 367.384 150.058 364.161 150.25C361.983 150.379 360.373 150.877 358.163 150.171C347.144 146.649 345.854 148.009 334.349 148.377C324.407 148.695 317.3 153.319 309.14 154.622C307.357 154.907 304.845 153.786 303.815 155.963C303.216 157.229 302.61 159.044 300.889 159.179C296.991 159.483 294.717 162.944 291.511 164.314L291.513 164.314C283.016 167.945 274.366 168.333 265.749 168.021C265.058 167.995 264.646 168.721 264.328 168.638C263.946 168.539 263.944 167.02 263.631 166.905C259.174 165.288 257.4 172.339 243.761 166.223C240.992 164.981 238.233 164.385 235.475 163.564C225.775 160.681 218.55 169.169 213.089 168.301C186.536 164.079 185.023 171.321 162.086 171.997C155.696 172.185 145.682 162.894 135.348 163.302C133.006 163.395 130.811 163.754 129.512 161.403C125.66 161.253 120.124 158.719 115.218 157.879C111.602 157.26 109.801 154.163 106.95 152.84C103.177 151.092 98.0869 152.019 94.8102 148.626C92.592 146.33 92.317 149.715 88.0201 146.229C86.4543 144.96 85.0141 143.708 82.8209 145.248C78.7031 144.063 77.3846 139.636 73.4596 140.359C69.9864 141 67.2892 138.639 64.3043 138.434C53.4306 137.684 43.0659 139.421 32.0797 140.156C24.0556 134.844 14.9515 132.613 5.42249 133.271C3.93286 133.255 1.67462 132.241 0.143189 132Z" stroke="white"/>
</svg>
