<svg width="1083" height="172" viewBox="0 0 1083 172" fill="none" xmlns="http://www.w3.org/2000/svg">
<path d="M2.27246 131.61C-0.67179 126.024 -0.0808729 120.924 0.386719 115.021L8.77735 8.41211C9.01885 5.35279 11.4852 1.91348 19.3262 0.94043C27.5733 -0.0839688 36.0369 -0.0720363 45.6611 0.0664068L475.283 6.22657L928.218 12.5986L1069.61 14.6162C1077.26 14.725 1082.06 17.1134 1082.45 19.5557C1083.24 24.5076 1083.01 28.9733 1082.8 33.8936L1081.01 77.1221L1076.06 114.546L1072.02 150.364C1054.3 149.706 1033.58 153.311 1017.76 151.863C1014.23 151.541 1011.71 149.538 1007.04 149.979C998.378 150.793 989.745 150.057 981.062 150.249C975.193 150.378 970.856 150.876 964.9 150.17C935.216 146.648 931.743 148.009 900.748 148.377C873.962 148.695 854.816 153.319 832.834 154.622C828.03 154.907 821.262 153.786 818.487 155.963C816.874 157.229 815.239 159.044 810.604 159.179C800.102 159.483 793.976 162.944 785.339 164.314L785.345 164.314C762.453 167.945 739.15 168.333 715.935 168.021C714.075 167.995 712.964 168.721 712.106 168.638C711.079 168.539 711.074 167.02 710.231 166.905C698.223 165.288 693.444 172.339 656.699 166.223C649.238 164.981 641.808 164.385 634.378 163.564C608.244 160.681 588.78 169.169 574.068 168.301C502.532 164.079 498.456 171.321 436.662 171.997C419.449 172.185 392.472 162.894 364.633 163.302C358.323 163.395 352.408 163.755 348.909 161.403C338.53 161.253 323.617 158.719 310.401 157.879C300.659 157.26 295.809 154.163 288.127 152.84C277.963 151.092 264.249 152.019 255.421 148.626C249.445 146.33 248.705 149.716 237.128 146.229C232.909 144.96 229.03 143.708 223.121 145.248C212.027 144.063 208.476 139.636 197.901 140.359C188.544 141 181.279 138.639 173.237 138.434C143.943 137.684 116.021 139.421 86.4238 140.156C64.8066 134.844 40.2808 132.613 14.6094 133.271C10.5964 133.256 6.39848 131.852 2.27246 131.61Z" fill="#FEC428"/>
<path d="M2.27246 131.61C-0.67179 126.024 -0.0808729 120.924 0.386719 115.021L8.77735 8.41211C9.01885 5.35279 11.4852 1.91348 19.3262 0.94043C27.5733 -0.0839688 36.0369 -0.0720363 45.6611 0.0664068L475.283 6.22657L928.218 12.5986L1069.61 14.6162C1077.26 14.725 1082.06 17.1134 1082.45 19.5557C1083.24 24.5076 1083.01 28.9733 1082.8 33.8936L1081.01 77.1221L1076.06 114.546L1072.02 150.364C1054.3 149.706 1033.58 153.311 1017.76 151.863C1014.23 151.541 1011.71 149.538 1007.04 149.979C998.378 150.793 989.745 150.057 981.062 150.249C975.193 150.378 970.856 150.876 964.9 150.17C935.216 146.648 931.743 148.009 900.748 148.377C873.962 148.695 854.816 153.319 832.834 154.622C828.03 154.907 821.262 153.786 818.487 155.963C816.874 157.229 815.239 159.044 810.604 159.179C800.102 159.483 793.976 162.944 785.339 164.314L785.345 164.314C762.453 167.945 739.15 168.333 715.935 168.021C714.075 167.995 712.964 168.721 712.106 168.638C711.079 168.539 711.074 167.02 710.231 166.905C698.223 165.288 693.444 172.339 656.699 166.223C649.238 164.981 641.808 164.385 634.378 163.564C608.244 160.681 588.78 169.169 574.068 168.301C502.532 164.079 498.456 171.321 436.662 171.997C419.449 172.185 392.472 162.894 364.633 163.302C358.323 163.395 352.408 163.755 348.909 161.403C338.53 161.253 323.617 158.719 310.401 157.879C300.659 157.26 295.809 154.163 288.127 152.84C277.963 151.092 264.249 152.019 255.421 148.626C249.445 146.33 248.705 149.716 237.128 146.229C232.909 144.96 229.03 143.708 223.121 145.248C212.027 144.063 208.476 139.636 197.901 140.359C188.544 141 181.279 138.639 173.237 138.434C143.943 137.684 116.021 139.421 86.4238 140.156C64.8066 134.844 40.2808 132.613 14.6094 133.271C10.5964 133.256 6.39848 131.852 2.27246 131.61Z" stroke="white"/>
</svg>
