<svg width="281" height="41" viewBox="0 0 281 41" fill="none" xmlns="http://www.w3.org/2000/svg">
<path d="M275.353 40.9128L60.8 40.9128C61.5697 39.3262 63.4842 39.905 64.175 38.1986C63.1783 37.0411 61.4513 36.6519 59.7144 36.6818L42.9279 36.9014C40.8753 36.9313 38.793 36.4424 37.1844 35.0553C38.8029 34.0974 40.224 34.0574 40.5299 32.4509C39.02 31.433 37.1746 30.6247 36.5726 28.8984C36.2864 28.0901 37.816 28.0702 38.5167 27.681C37.5594 27.5712 36.6022 26.6532 35.4476 26.6233L8.40763 25.9248C5.92075 25.8649 3.16741 26.0645 1.30225 24.1286C2.98978 23.2105 4.52928 23.1207 4.8056 21.5541C3.27597 20.5662 1.21343 19.8178 0.73974 17.8819C0.581842 17.2432 1.98318 17.2033 2.47661 16.7144C1.79568 16.2853 0.868031 16.3851 0.522631 15.6167C0.285785 15.0779 -0.375411 13.8904 0.285785 13.2617C2.49635 11.1562 16.1742 12.3636 20.8421 12.3736C21.523 12.3736 21.1875 11.0564 21.0098 10.6872C20.5657 9.77914 14.911 10.5774 13.9538 8.25239C15.138 7.76344 17.467 7.44412 17.2696 5.95728C16.3321 4.57024 13.5886 4.10123 13.411 2.04561C13.3814 1.73627 14.1314 1.31716 14.1709 1.07767C14.2498 0.608673 13.2728 0.588715 13.4406 -0.0100097L262.376 -0.0100098C263.491 -0.0100098 263.659 1.26727 264.497 1.33712L275.353 1.02778C276.202 1.00782 278.215 1.44689 278.136 2.48468C278.017 4.10123 275.659 4.15113 274.534 4.12119C274.06 4.18106 273.626 4.93945 274.238 5.05919C276.133 4.65007 277.968 4.45049 279.221 5.88743C277.721 7.95303 278.086 10.298 280.1 11.8647C278.915 15.6866 272.461 14.5989 271.327 15.4072C269.797 16.4749 268.642 17.2432 266.639 17.4927C268.396 18.4207 270.103 17.1934 271.514 18.4407C271.83 22.6018 269.57 20.167 272.817 25.0865C269.511 31.6526 250.701 24.7772 254.254 30.8842C254.57 31.423 254.984 32.4608 256.099 32.4708L271.919 32.5806C272.905 32.5806 275.422 32.84 275.531 33.8179C275.531 35.9235 272.856 35.4844 271.415 36.153C272.827 36.9712 275.008 35.6041 276.231 37.1109C276.863 37.8893 276.379 39.7553 275.363 40.9128L275.353 40.9128Z" fill="white"/>
</svg>
