<svg width="278" height="40" viewBox="0 0 278 40" fill="none" xmlns="http://www.w3.org/2000/svg">
<path d="M273.298 40L60.3462 40C61.1102 38.4488 63.0104 39.0146 63.6961 37.3463C62.7068 36.2146 60.9927 35.8341 59.2688 35.8634L42.6076 36.078C40.5702 36.1073 38.5035 35.6293 36.9069 34.2732C38.5133 33.3366 39.9238 33.2976 40.2274 31.7268C38.7288 30.7317 36.8971 29.9415 36.2996 28.2537C36.0156 27.4634 37.5338 27.4439 38.2292 27.0634C37.2791 26.9561 36.329 26.0585 35.183 26.0293L8.34489 25.3463C5.87656 25.2878 3.14377 25.4829 1.29253 23.5902C2.96747 22.6927 4.49548 22.6049 4.76973 21.0732C3.25152 20.1073 1.20438 19.3756 0.734219 17.4829C0.5775 16.8585 1.96838 16.8195 2.45813 16.3415C1.78228 15.9219 0.861553 16.0195 0.518731 15.2683C0.283652 14.7415 -0.372609 13.5805 0.283652 12.9658C2.47772 10.9073 16.0535 12.0878 20.6865 12.0976C21.3624 12.0976 21.0293 10.8097 20.853 10.4488C20.4123 9.56097 14.7998 10.3415 13.8496 8.06828C15.025 7.59024 17.3366 7.27804 17.1407 5.82438C16.2102 4.46828 13.4872 4.00975 13.3109 1.99999C13.2815 1.69755 14.026 1.2878 14.0651 1.05365C14.1435 0.595113 13.1738 0.5756 13.3403 -0.0097656L260.418 -0.00976562C261.525 -0.00976562 261.691 1.23901 262.524 1.30731L273.298 1.00487C274.14 0.985356 276.139 1.41462 276.06 2.42926C275.943 4.00975 273.602 4.05853 272.485 4.02926C272.015 4.0878 271.584 4.82926 272.191 4.94633C274.072 4.54633 275.894 4.35121 277.138 5.75609C275.649 7.7756 276.011 10.0683 278.009 11.6C276.834 15.3366 270.428 14.2732 269.302 15.0634C267.783 16.1073 266.637 16.8585 264.649 17.1024C266.393 18.0097 268.087 16.8097 269.488 18.0293C269.801 22.0976 267.558 19.7171 270.781 24.5268C267.499 30.9463 248.83 24.2244 252.356 30.1951C252.67 30.7219 253.081 31.7366 254.188 31.7463L269.889 31.8537C270.869 31.8537 273.367 32.1073 273.474 33.0634C273.474 35.1219 270.82 34.6927 269.39 35.3463C270.791 36.1463 272.955 34.8097 274.17 36.2829C274.797 37.0439 274.317 38.8683 273.308 40L273.298 40Z" fill="white"/>
</svg>
