<svg width="281" height="74" viewBox="0 0 281 74" fill="none" xmlns="http://www.w3.org/2000/svg">
<path d="M275.353 73.9996L60.8 73.9996C61.5697 71.1299 63.4842 72.1767 64.175 69.0904C63.1783 66.9967 61.4513 66.2928 59.7144 66.3469L42.9279 66.744C40.8753 66.7982 38.793 65.9138 37.1844 63.405C38.8029 61.6723 40.224 61.6001 40.5299 58.6943C39.02 56.8533 37.1746 55.3914 36.5726 52.2689C36.2864 50.807 37.816 50.7709 38.5167 50.067C37.5594 49.8684 36.6022 48.208 35.4476 48.1538L8.40763 46.8904C5.92075 46.7821 3.16741 47.1431 1.30225 43.6416C2.98978 41.9811 4.52928 41.8187 4.8056 38.985C3.27597 37.1982 1.21343 35.8446 0.73974 32.3431C0.581842 31.188 1.98318 31.1158 2.47661 30.2314C1.79568 29.4553 0.868031 29.6358 0.522631 28.246C0.285785 27.2714 -0.375411 25.1236 0.285785 23.9865C2.49635 20.1782 16.1742 22.3621 20.8421 22.3802C21.523 22.3802 21.1875 19.9978 21.0098 19.33C20.5657 17.6875 14.911 19.1314 13.9538 14.9261C15.138 14.0417 17.467 13.4641 17.2696 10.7748C16.3321 8.26607 13.5886 7.41778 13.411 3.69973C13.3814 3.14022 14.1314 2.38217 14.1709 1.949C14.2498 1.10071 13.2728 1.06461 13.4406 -0.0183105L262.376 -0.0183105C263.491 -0.0183105 263.659 2.29193 264.497 2.41827L275.353 1.85876C276.202 1.82266 278.215 2.61681 278.136 4.49388C278.017 7.41778 275.659 7.50802 274.534 7.45387C274.06 7.56217 273.626 8.93387 274.238 9.15046C276.133 8.41046 277.968 8.04948 279.221 10.6485C277.721 14.3846 278.086 18.6261 280.1 21.4597C278.915 28.3724 272.461 26.4051 271.327 27.867C269.797 29.7982 268.642 31.188 266.639 31.6392C268.396 33.3177 270.103 31.0977 271.514 33.3538C271.83 40.8802 269.57 36.4763 272.817 45.3743C269.511 57.2504 250.701 44.8148 254.254 55.8606C254.57 56.8353 254.984 58.7123 256.099 58.7304L271.919 58.9289C272.905 58.9289 275.422 59.3982 275.531 61.167C275.531 64.9752 272.856 64.1811 271.415 65.3904C272.827 66.8704 275.008 64.3977 276.231 67.123C276.863 68.5308 276.379 71.906 275.363 73.9996L275.353 73.9996Z" fill="#FEC428"/>
</svg>
