<svg width="75" height="75" viewBox="0 0 75 75" fill="none" xmlns="http://www.w3.org/2000/svg">
<path d="M34.1111 5.36657C35.042 3.16246 35.507 2.06041 36.1557 1.72114C36.7187 1.42629 37.3796 1.42629 37.9419 1.72114C38.5898 2.06041 39.0556 3.16246 39.9865 5.36657L47.4 22.9221C47.6757 23.5738 47.8129 23.8993 48.0262 24.149C48.2141 24.3696 48.4448 24.5465 48.7016 24.6675C48.9926 24.8038 49.3285 24.8413 50.0004 24.9164L68.109 26.9336C70.3829 27.1871 71.519 27.3135 72.0255 27.8595C72.4651 28.3336 72.669 28.9976 72.5776 29.6531C72.4724 30.4083 71.6235 31.2162 69.925 32.8314L56.3981 45.6992C55.8961 46.1763 55.645 46.4153 55.4861 46.7063C55.3454 46.9636 55.2576 47.2493 55.2278 47.5449C55.1945 47.8788 55.2641 48.228 55.4049 48.9257L59.1835 67.728C59.658 70.0891 59.8952 71.2693 59.56 71.9456C59.2684 72.5337 58.7336 72.9435 58.114 73.0545C57.4008 73.1816 56.4105 72.5789 54.4305 71.3735L38.6566 61.7697C38.0711 61.4136 37.7787 61.2352 37.4674 61.1655C37.1917 61.1042 36.9073 61.1042 36.6323 61.1655C36.3211 61.2352 36.0287 61.4136 35.4432 61.7697L19.6693 71.3735C17.6893 72.5789 16.699 73.1816 15.9858 73.0545C15.3661 72.9435 14.8314 72.5337 14.5398 71.9456C14.2046 71.2693 14.4418 70.0891 14.9163 67.728L18.6942 48.9257C18.8342 48.2273 18.9046 47.8788 18.8712 47.5449C18.8415 47.2493 18.7537 46.9636 18.6129 46.7063C18.454 46.4153 18.203 46.1763 17.7009 45.6992L4.17401 32.8314C2.47553 31.2155 1.62665 30.4083 1.52145 29.6531C1.43003 28.9968 1.63391 28.3328 2.07359 27.8595C2.58001 27.3135 3.7162 27.1871 5.99003 26.9336L24.0987 24.9164C24.7705 24.8413 25.1065 24.8038 25.3974 24.6675C25.6543 24.5465 25.885 24.3703 26.0729 24.149C26.2855 23.8993 26.4233 23.5738 26.6983 22.9221L34.1118 5.36657H34.1111Z" stroke="#1E1E1E" stroke-width="3" stroke-linecap="round" stroke-linejoin="round"/>
</svg>
